<mxfile host="app.diagrams.net" agent="Mozilla/5.0 (Windows NT 10.0; Win64; x64) AppleWebKit/537.36 (KHTML, like Gecko) Chrome/129.0.0.0 Safari/537.36" version="24.7.14">
  <diagram name="Page-1" id="xb5W-t4GidFb9s3Q8Q2Q">
    <mxGraphModel dx="1434" dy="780" grid="1" gridSize="10" guides="1" tooltips="1" connect="1" arrows="1" fold="1" page="1" pageScale="1" pageWidth="827" pageHeight="1169" math="0" shadow="0">
      <root>
        <mxCell id="0" />
        <mxCell id="1" parent="0" />
        <mxCell id="50xvhqp52eYtccqjw8fm-1" value="TARJETA_CREDITO" style="rounded=0;whiteSpace=wrap;html=1;" vertex="1" parent="1">
          <mxGeometry x="320" y="470" width="150" height="60" as="geometry" />
        </mxCell>
        <mxCell id="50xvhqp52eYtccqjw8fm-2" value="TITULAR" style="rounded=0;whiteSpace=wrap;html=1;" vertex="1" parent="1">
          <mxGeometry x="131.04" y="200" width="120" height="60" as="geometry" />
        </mxCell>
        <mxCell id="50xvhqp52eYtccqjw8fm-3" value="ID_numero" style="text;html=1;align=left;verticalAlign=middle;resizable=0;points=[];autosize=1;strokeColor=none;fillColor=none;" vertex="1" parent="1">
          <mxGeometry x="360" y="600" width="80" height="30" as="geometry" />
        </mxCell>
        <mxCell id="50xvhqp52eYtccqjw8fm-4" value="tipo" style="text;html=1;align=left;verticalAlign=middle;resizable=0;points=[];autosize=1;strokeColor=none;fillColor=none;" vertex="1" parent="1">
          <mxGeometry x="374" y="570" width="40" height="30" as="geometry" />
        </mxCell>
        <mxCell id="50xvhqp52eYtccqjw8fm-5" value="" style="endArrow=oval;html=1;rounded=0;endFill=1;exitX=0.16;exitY=0.95;exitDx=0;exitDy=0;exitPerimeter=0;" edge="1" parent="1" source="50xvhqp52eYtccqjw8fm-1">
          <mxGeometry width="50" height="50" relative="1" as="geometry">
            <mxPoint x="350" y="540" as="sourcePoint" />
            <mxPoint x="350" y="610" as="targetPoint" />
          </mxGeometry>
        </mxCell>
        <mxCell id="50xvhqp52eYtccqjw8fm-6" value="" style="endArrow=oval;html=1;rounded=0;endFill=0;exitX=0.3;exitY=1.067;exitDx=0;exitDy=0;exitPerimeter=0;" edge="1" parent="1" source="50xvhqp52eYtccqjw8fm-1">
          <mxGeometry width="50" height="50" relative="1" as="geometry">
            <mxPoint x="335" y="360" as="sourcePoint" />
            <mxPoint x="365" y="580" as="targetPoint" />
          </mxGeometry>
        </mxCell>
        <mxCell id="50xvhqp52eYtccqjw8fm-7" value="dni" style="text;html=1;align=left;verticalAlign=middle;resizable=0;points=[];autosize=1;strokeColor=none;fillColor=none;" vertex="1" parent="1">
          <mxGeometry x="302" y="200" width="40" height="30" as="geometry" />
        </mxCell>
        <mxCell id="50xvhqp52eYtccqjw8fm-8" value="domicilio" style="text;html=1;align=left;verticalAlign=middle;resizable=0;points=[];autosize=1;strokeColor=none;fillColor=none;" vertex="1" parent="1">
          <mxGeometry x="330" y="230" width="70" height="30" as="geometry" />
        </mxCell>
        <mxCell id="50xvhqp52eYtccqjw8fm-9" value="" style="endArrow=oval;html=1;rounded=0;entryX=-0.049;entryY=0.533;entryDx=0;entryDy=0;entryPerimeter=0;exitX=1;exitY=0.5;exitDx=0;exitDy=0;endFill=1;" edge="1" parent="1" target="50xvhqp52eYtccqjw8fm-7" source="50xvhqp52eYtccqjw8fm-2">
          <mxGeometry width="50" height="50" relative="1" as="geometry">
            <mxPoint x="302" y="300" as="sourcePoint" />
            <mxPoint x="422" y="310" as="targetPoint" />
          </mxGeometry>
        </mxCell>
        <mxCell id="50xvhqp52eYtccqjw8fm-10" value="" style="endArrow=oval;html=1;rounded=0;entryX=-0.029;entryY=0.333;entryDx=0;entryDy=0;entryPerimeter=0;endFill=0;" edge="1" parent="1" source="50xvhqp52eYtccqjw8fm-2" target="50xvhqp52eYtccqjw8fm-8">
          <mxGeometry width="50" height="50" relative="1" as="geometry">
            <mxPoint x="251.04" y="242" as="sourcePoint" />
            <mxPoint x="317" y="242" as="targetPoint" />
          </mxGeometry>
        </mxCell>
        <mxCell id="50xvhqp52eYtccqjw8fm-11" value="telefono" style="text;html=1;align=left;verticalAlign=middle;resizable=0;points=[];autosize=1;strokeColor=none;fillColor=none;" vertex="1" parent="1">
          <mxGeometry x="330" y="257" width="70" height="30" as="geometry" />
        </mxCell>
        <mxCell id="50xvhqp52eYtccqjw8fm-12" value="" style="endArrow=oval;html=1;rounded=0;entryX=-0.014;entryY=0.467;entryDx=0;entryDy=0;entryPerimeter=0;endFill=0;exitX=1;exitY=0.75;exitDx=0;exitDy=0;" edge="1" parent="1" source="50xvhqp52eYtccqjw8fm-2" target="50xvhqp52eYtccqjw8fm-11">
          <mxGeometry width="50" height="50" relative="1" as="geometry">
            <mxPoint x="251.99999999999997" y="259" as="sourcePoint" />
            <mxPoint x="317.96000000000004" y="259" as="targetPoint" />
          </mxGeometry>
        </mxCell>
        <mxCell id="50xvhqp52eYtccqjw8fm-13" value="tiene" style="html=1;whiteSpace=wrap;aspect=fixed;shape=isoRectangle;" vertex="1" parent="1">
          <mxGeometry x="151" y="370" width="80" height="48" as="geometry" />
        </mxCell>
        <mxCell id="50xvhqp52eYtccqjw8fm-14" value="" style="endArrow=none;html=1;rounded=0;entryX=0;entryY=0.5;entryDx=0;entryDy=0;exitX=0.488;exitY=0.958;exitDx=0;exitDy=0;exitPerimeter=0;" edge="1" parent="1" source="50xvhqp52eYtccqjw8fm-13">
          <mxGeometry width="50" height="50" relative="1" as="geometry">
            <mxPoint x="202.03999999999996" y="415.9839999999999" as="sourcePoint" />
            <mxPoint x="328" y="500" as="targetPoint" />
            <Array as="points">
              <mxPoint x="193" y="500" />
            </Array>
          </mxGeometry>
        </mxCell>
        <mxCell id="50xvhqp52eYtccqjw8fm-15" value="" style="endArrow=none;html=1;rounded=0;exitX=0.5;exitY=1;exitDx=0;exitDy=0;" edge="1" parent="1" source="50xvhqp52eYtccqjw8fm-2" target="50xvhqp52eYtccqjw8fm-13">
          <mxGeometry width="50" height="50" relative="1" as="geometry">
            <mxPoint x="390" y="530" as="sourcePoint" />
            <mxPoint x="440" y="480" as="targetPoint" />
          </mxGeometry>
        </mxCell>
        <mxCell id="50xvhqp52eYtccqjw8fm-16" value="(1,1)" style="text;html=1;align=center;verticalAlign=middle;resizable=0;points=[];autosize=1;strokeColor=none;fillColor=none;" vertex="1" parent="1">
          <mxGeometry x="270" y="470" width="50" height="30" as="geometry" />
        </mxCell>
        <mxCell id="50xvhqp52eYtccqjw8fm-17" value="(0,M)" style="text;html=1;align=center;verticalAlign=middle;resizable=0;points=[];autosize=1;strokeColor=none;fillColor=none;" vertex="1" parent="1">
          <mxGeometry x="192" y="260" width="50" height="30" as="geometry" />
        </mxCell>
        <mxCell id="50xvhqp52eYtccqjw8fm-18" value="M:1" style="text;html=1;align=center;verticalAlign=middle;resizable=0;points=[];autosize=1;strokeColor=none;fillColor=none;" vertex="1" parent="1">
          <mxGeometry x="211" y="360" width="40" height="30" as="geometry" />
        </mxCell>
        <mxCell id="50xvhqp52eYtccqjw8fm-19" value="CUENTA_CORRIENTE" style="rounded=0;whiteSpace=wrap;html=1;" vertex="1" parent="1">
          <mxGeometry x="470" y="215" width="150" height="60" as="geometry" />
        </mxCell>
        <mxCell id="50xvhqp52eYtccqjw8fm-20" value="codigo" style="text;html=1;align=left;verticalAlign=middle;resizable=0;points=[];autosize=1;strokeColor=none;fillColor=none;" vertex="1" parent="1">
          <mxGeometry x="680.96" y="215" width="60" height="30" as="geometry" />
        </mxCell>
        <mxCell id="50xvhqp52eYtccqjw8fm-21" value="saldo" style="text;html=1;align=left;verticalAlign=middle;resizable=0;points=[];autosize=1;strokeColor=none;fillColor=none;" vertex="1" parent="1">
          <mxGeometry x="700.96" y="245" width="50" height="30" as="geometry" />
        </mxCell>
        <mxCell id="50xvhqp52eYtccqjw8fm-22" value="" style="endArrow=oval;html=1;rounded=0;entryX=-0.012;entryY=0.967;entryDx=0;entryDy=0;entryPerimeter=0;exitX=1;exitY=0.5;exitDx=0;exitDy=0;endFill=1;" edge="1" parent="1" source="50xvhqp52eYtccqjw8fm-19" target="50xvhqp52eYtccqjw8fm-20">
          <mxGeometry width="50" height="50" relative="1" as="geometry">
            <mxPoint x="540" y="275" as="sourcePoint" />
            <mxPoint x="590" y="225" as="targetPoint" />
          </mxGeometry>
        </mxCell>
        <mxCell id="50xvhqp52eYtccqjw8fm-23" value="" style="endArrow=oval;html=1;rounded=0;entryX=-0.099;entryY=0.433;entryDx=0;entryDy=0;entryPerimeter=0;endFill=0;exitX=1;exitY=0.75;exitDx=0;exitDy=0;" edge="1" parent="1" source="50xvhqp52eYtccqjw8fm-19" target="50xvhqp52eYtccqjw8fm-21">
          <mxGeometry width="50" height="50" relative="1" as="geometry">
            <mxPoint x="485" y="205" as="sourcePoint" />
            <mxPoint x="485" y="175" as="targetPoint" />
          </mxGeometry>
        </mxCell>
        <mxCell id="50xvhqp52eYtccqjw8fm-24" value="f_apertura" style="text;html=1;align=left;verticalAlign=middle;resizable=0;points=[];autosize=1;strokeColor=none;fillColor=none;" vertex="1" parent="1">
          <mxGeometry x="700.96" y="260" width="80" height="30" as="geometry" />
        </mxCell>
        <mxCell id="50xvhqp52eYtccqjw8fm-25" value="" style="endArrow=oval;html=1;rounded=0;entryX=-0.099;entryY=0.433;entryDx=0;entryDy=0;entryPerimeter=0;endFill=0;exitX=1;exitY=1;exitDx=0;exitDy=0;" edge="1" parent="1" target="50xvhqp52eYtccqjw8fm-24" source="50xvhqp52eYtccqjw8fm-19">
          <mxGeometry width="50" height="50" relative="1" as="geometry">
            <mxPoint x="620" y="275" as="sourcePoint" />
            <mxPoint x="485" y="190" as="targetPoint" />
          </mxGeometry>
        </mxCell>
        <mxCell id="50xvhqp52eYtccqjw8fm-27" value="asociada" style="html=1;whiteSpace=wrap;aspect=fixed;shape=isoRectangle;" vertex="1" parent="1">
          <mxGeometry x="505" y="360" width="80" height="48" as="geometry" />
        </mxCell>
        <mxCell id="50xvhqp52eYtccqjw8fm-28" value="" style="endArrow=none;html=1;rounded=0;entryX=0.538;entryY=0.021;entryDx=0;entryDy=0;entryPerimeter=0;exitX=0.5;exitY=1;exitDx=0;exitDy=0;" edge="1" parent="1" source="50xvhqp52eYtccqjw8fm-19" target="50xvhqp52eYtccqjw8fm-27">
          <mxGeometry width="50" height="50" relative="1" as="geometry">
            <mxPoint x="201" y="270" as="sourcePoint" />
            <mxPoint x="212" y="341" as="targetPoint" />
          </mxGeometry>
        </mxCell>
        <mxCell id="50xvhqp52eYtccqjw8fm-29" value="" style="endArrow=none;html=1;rounded=0;entryX=1;entryY=0.5;entryDx=0;entryDy=0;" edge="1" parent="1" target="50xvhqp52eYtccqjw8fm-1">
          <mxGeometry width="50" height="50" relative="1" as="geometry">
            <mxPoint x="545" y="410" as="sourcePoint" />
            <mxPoint x="569" y="337" as="targetPoint" />
            <Array as="points">
              <mxPoint x="545" y="500" />
            </Array>
          </mxGeometry>
        </mxCell>
        <mxCell id="50xvhqp52eYtccqjw8fm-30" value="(1,N)" style="text;html=1;align=center;verticalAlign=middle;resizable=0;points=[];autosize=1;strokeColor=none;fillColor=none;" vertex="1" parent="1">
          <mxGeometry x="580" y="275" width="50" height="30" as="geometry" />
        </mxCell>
        <mxCell id="50xvhqp52eYtccqjw8fm-31" value="(1,N)" style="text;html=1;align=center;verticalAlign=middle;resizable=0;points=[];autosize=1;strokeColor=none;fillColor=none;" vertex="1" parent="1">
          <mxGeometry x="470" y="470" width="50" height="30" as="geometry" />
        </mxCell>
        <mxCell id="50xvhqp52eYtccqjw8fm-32" value="1:N" style="text;html=1;align=center;verticalAlign=middle;resizable=0;points=[];autosize=1;strokeColor=none;fillColor=none;" vertex="1" parent="1">
          <mxGeometry x="580" y="369" width="40" height="30" as="geometry" />
        </mxCell>
        <mxCell id="50xvhqp52eYtccqjw8fm-33" value="pertenece" style="html=1;whiteSpace=wrap;aspect=fixed;shape=isoRectangle;" vertex="1" parent="1">
          <mxGeometry x="374" y="120" width="80" height="48" as="geometry" />
        </mxCell>
        <mxCell id="50xvhqp52eYtccqjw8fm-34" value="" style="endArrow=none;html=1;rounded=0;exitX=0.5;exitY=0;exitDx=0;exitDy=0;entryX=0.025;entryY=0.5;entryDx=0;entryDy=0;entryPerimeter=0;" edge="1" parent="1" source="50xvhqp52eYtccqjw8fm-2" target="50xvhqp52eYtccqjw8fm-33">
          <mxGeometry width="50" height="50" relative="1" as="geometry">
            <mxPoint x="201" y="270" as="sourcePoint" />
            <mxPoint x="350" y="140" as="targetPoint" />
            <Array as="points">
              <mxPoint x="191" y="144" />
            </Array>
          </mxGeometry>
        </mxCell>
        <mxCell id="50xvhqp52eYtccqjw8fm-35" value="" style="endArrow=none;html=1;rounded=0;exitX=0.5;exitY=0;exitDx=0;exitDy=0;entryX=0.95;entryY=0.417;entryDx=0;entryDy=0;entryPerimeter=0;" edge="1" parent="1" source="50xvhqp52eYtccqjw8fm-19" target="50xvhqp52eYtccqjw8fm-33">
          <mxGeometry width="50" height="50" relative="1" as="geometry">
            <mxPoint x="201" y="210" as="sourcePoint" />
            <mxPoint x="510" y="150" as="targetPoint" />
            <Array as="points">
              <mxPoint x="545" y="140" />
            </Array>
          </mxGeometry>
        </mxCell>
        <mxCell id="50xvhqp52eYtccqjw8fm-36" value="(1,1)" style="text;html=1;align=center;verticalAlign=middle;resizable=0;points=[];autosize=1;strokeColor=none;fillColor=none;" vertex="1" parent="1">
          <mxGeometry x="545.96" y="185" width="50" height="30" as="geometry" />
        </mxCell>
        <mxCell id="50xvhqp52eYtccqjw8fm-37" value="(1,P)" style="text;html=1;align=center;verticalAlign=middle;resizable=0;points=[];autosize=1;strokeColor=none;fillColor=none;" vertex="1" parent="1">
          <mxGeometry x="142.00000000000006" y="170" width="50" height="30" as="geometry" />
        </mxCell>
        <mxCell id="50xvhqp52eYtccqjw8fm-38" value="P:1" style="text;html=1;align=center;verticalAlign=middle;resizable=0;points=[];autosize=1;strokeColor=none;fillColor=none;" vertex="1" parent="1">
          <mxGeometry x="394.00000000000006" y="90" width="40" height="30" as="geometry" />
        </mxCell>
      </root>
    </mxGraphModel>
  </diagram>
</mxfile>
